<?xml version="1.0" standalone="no"?>
<!DOCTYPE svg PUBLIC "-//W3C//DTD SVG 1.1//EN" "http://www.w3.org/Graphics/SVG/1.1/DTD/svg11.dtd" >
<svg xmlns="http://www.w3.org/2000/svg">
<metadata></metadata>
<defs>
<font id="cooper_hewittbook" horiz-adv-x="1228" >
<font-face units-per-em="2048" ascent="1536" descent="-512" />
<missing-glyph horiz-adv-x="409" />
<glyph horiz-adv-x="0" />
<glyph horiz-adv-x="682" />
<glyph unicode=" "  horiz-adv-x="409" />
<glyph unicode="&#x09;" horiz-adv-x="409" />
<glyph unicode="&#xa0;" horiz-adv-x="409" />
<glyph unicode="!" horiz-adv-x="442" d="M129 0v184h184v-184h-184zM133 1597h176l-39 -1210h-98z" />
<glyph unicode="&#x22;" horiz-adv-x="692" d="M141 1597h154l-23 -550h-100zM399 1597h152l-29 -550h-102z" />
<glyph unicode="#" d="M68 481v135h219l82 365h-183v135h213l109 481h133l-109 -481h306l108 481h135l-108 -481h188v-135h-219l-82 -365h182v-135h-213l-108 -481h-133l106 481h-305l-106 -481h-136l109 481h-188zM420 616h305l82 365h-305z" />
<glyph unicode="$" d="M129 547v14h145q0 -96 38.5 -167t109.5 -111l115 479q-207 33 -299.5 119t-92.5 225v14q0 169 129 269t340 100q52 0 95 -6l57 237h125l-64 -264q130 -43 194 -147.5t64 -259.5v-33h-143q0 234 -145 309l-111 -459q213 -31 313.5 -116t100.5 -240v-16q0 -178 -125 -281.5 t-344 -103.5q-74 0 -123 8l-57 -240h-125l65 273q-128 52 -195 155.5t-67 241.5zM293 1120q0 -96 62.5 -153t209.5 -84l115 475q-40 4 -62 4h-8q-136 0 -226.5 -63t-90.5 -169v-10zM537 244q39 -8 92 -8h6q144 0 229.5 66t85.5 183v11q0 111 -69.5 167t-223.5 82z" />
<glyph unicode="%" horiz-adv-x="1886" d="M78 1247v23q0 167 97.5 258.5t246.5 91.5q68 0 135 -23q164 -63 367 -63q98 0 216 22t165 43v-96l-625 -1503h-137l598 1440q-124 -31 -234 -31q-96 0 -170 14q29 -69 29 -153v-23q0 -167 -97.5 -258.5t-246.5 -91.5t-246.5 91.5t-97.5 258.5zM199 1241q0 -105 62 -164 t155 -59h12q93 0 155 59t62 164v35q0 105 -62 164t-155 59h-12q-93 0 -155 -59t-62 -164v-35zM1122 328v22q0 167 97 258.5t245 91.5q149 0 246.5 -91.5t97.5 -258.5v-22q0 -167 -97.5 -259t-246.5 -92q-148 0 -245 92t-97 259zM1243 322q0 -105 61 -164.5t154 -59.5h12 q94 0 156 59.5t62 164.5v34q0 105 -62 164.5t-156 59.5h-12q-93 0 -154 -59.5t-61 -164.5v-34z" />
<glyph unicode="&#x26;" horiz-adv-x="1353" d="M86 416v20q0 141 69.5 242t190.5 186q-73 80 -112.5 133.5t-66 123t-26.5 147.5v20q0 146 99.5 239t279.5 93q182 0 281.5 -92.5t99.5 -239.5v-20q0 -70 -25 -128.5t-83.5 -113.5t-99 -84.5t-125.5 -85.5q-3 -2 -5 -3.5t-5 -3t-5 -3.5l436 -473q86 169 86 428v6h150 q0 -331 -135 -545l241 -262h-186l-144 154q-180 -177 -458 -177q-213 0 -335 116.5t-122 322.5zM233 424q0 -145 80 -229t238 -84h12q210 0 344 145l-469 510q-98 -71 -151.5 -148t-53.5 -176v-18zM289 1268q0 -89 44 -163.5t128 -162.5q44 28 65 41.5t58.5 39.5t56 43 t44 43.5t37.5 49t21 51t9 58.5v18q0 85 -58.5 144t-165.5 59h-14q-107 0 -166 -59t-59 -144v-18z" />
<glyph unicode="'" horiz-adv-x="444" d="M141 1597h162l-31 -550h-100z" />
<glyph unicode="(" horiz-adv-x="649" d="M104 717v41q0 138 18 260.5t44 212t72 183.5t85 156.5t99 149.5h158q-79 -111 -132 -202.5t-102 -209.5t-72.5 -254.5t-23.5 -295.5v-41q0 -159 23.5 -296t72.5 -254.5t102 -209.5t132 -203h-158q-60 87 -99.5 149.5t-85 156.5t-71.5 184t-44 212.5t-18 260.5z" />
<glyph unicode=")" horiz-adv-x="649" d="M70 -246q79 111 132 203t101.5 209.5t72 254.5t23.5 296v41q0 159 -23.5 295.5t-72 254.5t-101.5 209.5t-132 202.5h157q60 -86 100 -149.5t85 -156.5t71.5 -183.5t44 -212.5t17.5 -260v-41q0 -138 -17.5 -260t-44 -212.5t-71.5 -184t-85 -157.5t-100 -149h-157z" />
<glyph unicode="*" horiz-adv-x="796" d="M20 1327l35 103l281 -103l-27 -82zM131 987l184 234l70 -50l-166 -247zM344 1638h109l-11 -299h-88zM410 1171l71 50l183 -234l-86 -63zM461 1327l280 103l33 -103l-287 -82z" />
<glyph unicode="+" d="M98 731v135h449v449h135v-449h448v-135h-448v-448h-135v448h-449z" />
<glyph unicode="," horiz-adv-x="442" d="M82 -156q66 0 101.5 36t41.5 120h-96v184h184v-147q0 -279 -231 -279v86z" />
<glyph unicode="-" horiz-adv-x="673" d="M82 651v131h510v-131h-510z" />
<glyph unicode="." horiz-adv-x="442" d="M129 0v184h184v-184h-184z" />
<glyph unicode="/" horiz-adv-x="675" d="M31 -246l471 1966h143l-471 -1966h-143z" />
<glyph unicode="0" d="M127 459v680q0 106 27.5 192t84.5 151.5t152.5 101.5t222.5 36t222.5 -36t152.5 -101.5t85 -151.5t28 -192v-680q0 -106 -28 -192t-85 -152t-152.5 -102t-222.5 -36t-222.5 36t-152.5 102t-84.5 152t-27.5 192zM272 475q0 -176 78.5 -271t257.5 -95h13q179 0 257 95 t78 271v647q0 176 -78 271.5t-257 95.5h-13q-179 0 -257.5 -95.5t-78.5 -271.5v-647z" />
<glyph unicode="1" d="M113 1266l501 340h95v-1473h415v-133h-979v133h418v1276l-377 -256z" />
<glyph unicode="2" d="M115 0v92l690 733q92 95 128 166.5t36 159.5v20q0 146 -95.5 232t-252.5 86h-13q-176 0 -262 -101t-86 -323h-145v49q0 506 499 506q238 0 369 -116.5t131 -309.5v-25q0 -123 -39.5 -210t-146.5 -201l-590 -627l154 2h622v-133h-999z" />
<glyph unicode="3" d="M104 489v23h146q0 -204 92 -303.5t262 -99.5h21q95 0 173 32t129.5 103.5t51.5 171.5v28q0 148 -94 227t-242 79h-233v131h225q149 0 241.5 71t92.5 213v15q0 140 -94.5 224.5t-249.5 84.5h-21q-176 0 -260 -100.5t-84 -323.5h-145v49q0 506 499 506q238 0 369 -115.5 t131 -306.5v-31q0 -135 -66.5 -223.5t-181.5 -128.5q119 -43 188.5 -137.5t69.5 -235.5v-32q0 -191 -142.5 -312t-367.5 -121q-255 0 -382.5 134.5t-127.5 377.5z" />
<glyph unicode="4" d="M68 424v98l688 1075h141v-1040h264v-133h-264v-424h-145v424h-684zM248 555l176 2h328v582l2 209z" />
<glyph unicode="5" d="M104 489v23h146q0 -204 92 -303.5t262 -99.5h21q70 0 132.5 22t112.5 65t79.5 115.5t29.5 165.5v37q0 93 -29.5 165.5t-80 115.5t-113.5 64.5t-135 21.5h-19q-117 0 -217.5 -56.5t-144.5 -160.5l-123 36l39 897h948v-133h-807l-27 -567q137 115 348 115q224 0 365 -132.5 t141 -371.5v-25q0 -161 -67 -277t-181 -172.5t-262 -56.5q-255 0 -382.5 134.5t-127.5 377.5z" />
<glyph unicode="6" d="M113 539v22q0 431 225 731q125 167 318 247.5t403 80.5v-131q-110 0 -216 -28t-210 -93t-178 -162q-114 -148 -162 -350q145 148 360 148q140 0 246.5 -54t170 -169t63.5 -279v-21q0 -246 -137.5 -375t-372.5 -129q-227 0 -368.5 149.5t-141.5 412.5zM258 532 q0 -193 102 -308t256 -115h13q164 0 261 97t97 269v35q0 172 -94 267t-254 95h-12q-119 0 -216 -61t-151 -164q-2 -31 -2 -94v-21z" />
<glyph unicode="7" d="M119 1024v573h1007v-90l-612 -1507h-158l598 1466l-225 -2h-477v-440h-133z" />
<glyph unicode="8" d="M104 406v32q0 142 69 237t189 140q-115 42 -181 131.5t-66 224.5v31q0 190 130.5 304t368.5 114t369 -114t131 -304v-31q0 -135 -67 -224.5t-183 -131.5q120 -45 190 -140t70 -237v-32q0 -190 -142 -309.5t-368 -119.5t-368 119.5t-142 309.5zM250 412q0 -76 29.5 -135.5 t79.5 -95.5t112.5 -54t132.5 -18h21q70 0 132.5 18t112.5 54t79.5 95.5t29.5 135.5v28q0 148 -94.5 229t-241.5 81h-57q-147 0 -241.5 -81t-94.5 -229v-28zM260 1169q0 -141 93 -214.5t241 -73.5h41q148 0 241 73.5t93 214.5v17q0 139 -94.5 221t-249.5 82h-21 q-155 0 -249.5 -82t-94.5 -221v-17z" />
<glyph unicode="9" d="M96 1096v20q0 246 137.5 375t372.5 129q227 0 368.5 -149t141.5 -412v-23q0 -431 -225 -731q-125 -167 -318 -247.5t-403 -80.5v132q110 0 216 27.5t210 92.5t178 162q110 142 162 348q-145 -145 -361 -145q-104 0 -190.5 31.5t-151.5 92.5t-101 157.5t-36 220.5z M242 1087q0 -172 94 -267t254 -95h12q118 0 215.5 61t149.5 162q4 66 4 96v21q0 193 -102.5 308.5t-256.5 115.5h-12q-164 0 -261 -97.5t-97 -269.5v-35z" />
<glyph unicode=":" horiz-adv-x="442" d="M129 0v184h184v-184h-184zM129 707v184h184v-184h-184z" />
<glyph unicode=";" horiz-adv-x="442" d="M82 -156q66 0 101.5 36t41.5 120h-96v184h184v-147q0 -279 -231 -279v86zM129 707v184h184v-184h-184z" />
<glyph unicode="&#x3c;" d="M98 727v143l1032 482v-148l-888 -405l888 -406v-147z" />
<glyph unicode="=" d="M98 522v135h1032v-135h-1032zM98 940v135h1032v-135h-1032z" />
<glyph unicode="&#x3e;" d="M98 246v147l887 406l-887 405v148l1032 -482v-143z" />
<glyph unicode="?" horiz-adv-x="931" d="M53 1032v25q0 101 11.5 181.5t40.5 153.5t75.5 122t120.5 77.5t172 28.5q207 0 304 -112t97 -314q0 -83 -19 -151t-50 -116t-69 -91.5l-76 -87t-70 -92t-53.5 -117.5t-24.5 -152h-96q-3 84 12.5 158t42.5 129.5t60.5 106.5t67.5 97t62 91t46 99t18 112q0 153 -56 230 t-196 77q-63 0 -110.5 -21t-78.5 -58t-50 -95t-27 -125.5t-8 -155.5h-146zM371 0v184h184v-184h-184z" />
<glyph unicode="@" horiz-adv-x="1968" d="M68 553v82q0 229 69.5 415t195.5 311t302 192t387 67q145 0 274.5 -31.5t240.5 -98t192 -162.5t126.5 -232.5t45.5 -300.5v-62q0 -144 -27 -252t-73.5 -175.5t-117.5 -109t-149.5 -57.5t-179.5 -16h-94l-21 149q-45 -77 -124.5 -124.5t-192.5 -47.5q-103 0 -182.5 39.5 t-126 107.5t-70 152t-23.5 181v49q0 77 14 146t45.5 130.5t77.5 106t114 70.5t151 26q112 0 191.5 -48t125.5 -124l21 149h110l-12 -301v-551q69 2 120.5 10.5t102 28.5t85 56t61.5 90t40 133t13 182v62q0 149 -41 270t-111.5 202t-167 136t-204.5 79.5t-228 24.5h-12 q-183 0 -336 -59.5t-263 -169.5t-171.5 -275t-61.5 -368v-82q0 -209 62 -375t174 -274.5t266 -165.5t340 -57h12q387 0 674 213l66 -89q-303 -237 -746 -237q-212 0 -389.5 67t-305 192t-198.5 311t-71 415zM662 580q0 -161 72 -259t218 -98q92 0 161.5 49t111.5 115v434 q-42 66 -111.5 115t-161.5 49q-146 0 -218 -97.5t-72 -258.5v-49z" />
<glyph unicode="A" horiz-adv-x="1251" d="M59 0l461 1614h211l461 -1614h-160l-114 410h-584l-115 -410h-160zM371 543h508l-254 909z" />
<glyph unicode="B" horiz-adv-x="1200" d="M152 0v1597h405q103 0 188.5 -22.5t153 -68.5t105.5 -125t38 -185v-41q0 -246 -237 -330q278 -84 278 -362v-41q0 -110 -39 -193t-108 -132t-155.5 -73t-190.5 -24h-438zM299 133h301q146 0 239 73.5t93 221.5v31q0 148 -93 221.5t-239 73.5h-301v-621zM299 887h264 q146 0 237 66t91 206v33q0 140 -91 206t-237 66h-264v-577z" />
<glyph unicode="C" horiz-adv-x="1265" d="M117 758v82q0 410 131.5 595t410.5 185q504 0 504 -547v-57h-151q0 248 -80 359.5t-260 111.5h-15q-201 0 -295 -154t-94 -493v-82q0 -339 93.5 -493t295.5 -154h15q176 0 258 103t82 306h151v-20q0 -255 -126 -389t-378 -134q-278 0 -410 185.5t-132 595.5z" />
<glyph unicode="D" horiz-adv-x="1308" d="M152 0v1597h421q150 0 261.5 -41t193 -129.5t123 -235.5t41.5 -351v-82q0 -204 -41.5 -351t-123 -236t-193.5 -130t-261 -41h-421zM299 133h262q118 0 205 34t149.5 107.5t93.5 194t31 289.5v82q0 331 -120 477.5t-359 146.5h-262v-1331z" />
<glyph unicode="E" horiz-adv-x="1124" d="M152 0v1597h890v-133h-743v-583h641v-131h-641v-617h743v-133h-890z" />
<glyph unicode="F" horiz-adv-x="1050" d="M152 0v1597h858v-133h-711v-583h608v-131h-608v-750h-147z" />
<glyph unicode="G" horiz-adv-x="1327" d="M117 758v82q0 406 140.5 593t420.5 187q508 0 508 -547v-57h-150q0 248 -81 359.5t-265 111.5h-12q-206 0 -307 -155.5t-101 -491.5v-82q0 -340 101.5 -493.5t322.5 -153.5h15q112 0 196 35t133 87v422h-274v131h422v-624q-177 -185 -488 -185q-294 0 -437.5 186.5 t-143.5 594.5z" />
<glyph unicode="H" horiz-adv-x="1308" d="M152 0v1597h147v-716h711v716h147v-1597h-147v750h-711v-750h-147z" />
<glyph unicode="I" horiz-adv-x="471" d="M162 0v1597h147v-1597h-147z" />
<glyph unicode="J" horiz-adv-x="1013" d="M59 492v28h140q0 -214 61.5 -311.5t202.5 -97.5q140 0 201 96.5t61 308.5v1081h147v-1105q0 -251 -95.5 -383t-311.5 -132q-220 0 -313 129t-93 386z" />
<glyph unicode="K" horiz-adv-x="1150" d="M152 0v1597h147v-876l602 876h180l-475 -671l475 -926h-168l-401 793l-213 -301v-492h-147z" />
<glyph unicode="L" horiz-adv-x="1005" d="M152 0v1597h147v-1464h676v-133h-823z" />
<glyph unicode="M" horiz-adv-x="1644" d="M152 0v1597h206l465 -1343l465 1343h207v-1597h-147v985l6 356l-465 -1341h-133l-465 1341l8 -356v-985h-147z" />
<glyph unicode="N" horiz-adv-x="1349" d="M152 0v1597h159l754 -1347l-6 371v976h139v-1597h-160l-755 1348l8 -371v-977h-139z" />
<glyph unicode="O" horiz-adv-x="1329" d="M117 758v82q0 409 134.5 594.5t412.5 185.5q279 0 413.5 -185.5t134.5 -594.5v-82q0 -409 -134.5 -595t-413.5 -186q-278 0 -412.5 186t-134.5 595zM268 758q0 -339 93.5 -493t295.5 -154h15q202 0 295.5 154t93.5 493v82q0 339 -93.5 493t-295.5 154h-15 q-202 0 -295.5 -154t-93.5 -493v-82z" />
<glyph unicode="P" horiz-adv-x="1173" d="M152 0v1597h442q74 0 139 -11.5t131 -42.5t113 -80.5t76.5 -131t29.5 -188.5v-41q0 -106 -29.5 -187.5t-76.5 -131t-113 -80.5t-131 -42.5t-139 -11.5h-295v-649h-147zM299 782h299q46 0 88 7t88.5 29t80 56.5t55.5 94.5t22 139v31q0 79 -22 139t-55.5 94.5t-80 56 t-88.5 28.5t-88 7h-299v-682z" />
<glyph unicode="Q" horiz-adv-x="1329" d="M117 758v82q0 409 134.5 594.5t412.5 185.5q279 0 413.5 -185.5t134.5 -594.5v-82q0 -314 -78.5 -494.5t-238.5 -245.5l86 -223h-135l-72 191q-79 -9 -110 -9q-278 0 -412.5 186t-134.5 595zM268 758q0 -339 93.5 -493t295.5 -154h15q37 0 55 2l-131 350h127l121 -316 q110 56 163.5 205.5t53.5 405.5v82q0 339 -93.5 493t-295.5 154h-15q-202 0 -295.5 -154t-93.5 -493v-82z" />
<glyph unicode="R" horiz-adv-x="1196" d="M152 0v1597h442q74 0 139 -11.5t131 -42.5t113 -80.5t76.5 -131t29.5 -188.5v-41q0 -333 -276 -422l276 -680h-161l-254 651q-25 -2 -74 -2h-295v-649h-147zM299 782h299q46 0 88 7t88.5 29t80 56.5t55.5 94.5t22 139v31q0 79 -22 139t-55.5 94.5t-80 56t-88.5 28.5 t-88 7h-299v-682z" />
<glyph unicode="S" horiz-adv-x="1230" d="M94 500v20h148q0 -204 99 -306.5t267 -102.5h15q165 0 263.5 81.5t98.5 225.5v18q0 141 -93 217t-302 105q-477 64 -477 413v21q0 198 136 313t365 115q261 0 382.5 -130t121.5 -384v-49h-147q0 227 -83 328.5t-267 101.5h-15q-149 0 -245.5 -75t-96.5 -202v-16 q0 -89 33.5 -148t118.5 -101t229 -62q257 -35 374.5 -141t117.5 -293v-21q0 -211 -141 -331t-382 -120q-252 0 -386 137t-134 386z" />
<glyph unicode="T" horiz-adv-x="1054" d="M47 1464v133h961v-133h-408v-1464h-147v1464h-406z" />
<glyph unicode="U" horiz-adv-x="1308" d="M141 496v1101h148v-1091q0 -150 41 -237.5t118 -122.5t205 -35q192 0 279.5 87.5t87.5 307.5v1091h147v-1101q0 -143 -32 -243t-98 -161t-159.5 -88t-224.5 -27q-263 0 -387.5 119t-124.5 400z" />
<glyph unicode="V" horiz-adv-x="1251" d="M59 1597h160l406 -1452l407 1452h160l-461 -1613h-211z" />
<glyph unicode="W" horiz-adv-x="1832" d="M84 1597h156l249 -1431l328 1431h199l327 -1431l250 1431h156l-297 -1613h-203l-334 1454l-331 -1454h-203z" />
<glyph unicode="X" horiz-adv-x="1255" d="M63 0l463 813l-463 784h173l391 -671l391 671h174l-465 -784l465 -813h-168l-397 702l-396 -702h-168z" />
<glyph unicode="Y" horiz-adv-x="1181" d="M43 1597h160l389 -931l387 931h162l-475 -1114v-483h-148v483z" />
<glyph unicode="Z" horiz-adv-x="1153" d="M82 0v102l786 1368l-258 -6h-508v133h949v-102l-787 -1368l258 6h549v-133h-989z" />
<glyph unicode="[" horiz-adv-x="649" d="M137 -246v1966h426v-135h-280v-1696h280v-135h-426z" />
<glyph unicode="\" horiz-adv-x="673" d="M31 1720h143l471 -1966h-143z" />
<glyph unicode="]" horiz-adv-x="649" d="M86 -111h283v1696h-283v135h426v-1966h-426v135z" />
<glyph unicode="^" d="M61 565l482 1032h143l481 -1032h-147l-406 887l-405 -887h-148z" />
<glyph unicode="_" horiz-adv-x="655" d="M98 -145h459v-131h-459v131z" />
<glyph unicode="`" horiz-adv-x="1024" d="M246 1597h155l185 -340h-148z" />
<glyph unicode="a" horiz-adv-x="1048" d="M92 274v21q0 68 20.5 122t53 88.5t80.5 59.5t95 38t105 22l328 51v29q0 146 -56 214t-196 68q-74 0 -125.5 -20t-78 -58t-37.5 -81.5t-11 -100.5h-137v18q0 53 9.5 101t36.5 97.5t69 84.5t113 57.5t163 22.5q110 0 188 -28.5t122.5 -83.5t64 -126t19.5 -165v-398l12 -307 h-119l-23 152q-134 -175 -382 -175q-147 0 -230.5 82t-83.5 215zM236 287q0 -79 52 -132t154 -53q226 0 332 172v297l-315 -51q-223 -40 -223 -215v-18z" />
<glyph unicode="b" horiz-adv-x="1099" d="M123 0l12 307v1331h144v-677q102 147 307 147q108 0 189.5 -41.5t130 -116.5t72 -171t23.5 -212v-49q0 -116 -23.5 -212t-72 -171t-130 -116.5t-189.5 -41.5q-221 0 -324 170l-20 -147h-119zM279 274q100 -168 274 -168q150 0 225.5 109t75.5 303v49q0 194 -75.5 303 t-225.5 109q-174 0 -274 -168v-537z" />
<glyph unicode="c" horiz-adv-x="1069" d="M100 518v49q0 116 27 212t80.5 170.5t141.5 116.5t204 42q107 0 190 -34t130.5 -90t71.5 -121t24 -134v-41h-138q0 133 -67.5 212t-208.5 79q-156 0 -232.5 -109.5t-76.5 -302.5v-49q0 -193 76.5 -302.5t232.5 -109.5q142 0 209 77t67 194h138v-33q0 -53 -14 -104 t-46.5 -99t-79.5 -84t-118 -58t-158 -22q-116 0 -204 42t-141.5 116.5t-80.5 170.5t-27 212z" />
<glyph unicode="d" horiz-adv-x="1105" d="M104 518v49q0 116 24 212t72.5 171t130 116.5t189.5 41.5q201 0 307 -147v677h144v-1331l12 -307h-121l-20 145q-45 -75 -125.5 -121.5t-196.5 -46.5q-108 0 -189.5 41.5t-130 116.5t-72.5 171t-24 212zM250 518q0 -194 75.5 -303t225.5 -109q171 0 276 168v537 q-105 168 -276 168q-150 0 -225.5 -109t-75.5 -303v-49z" />
<glyph unicode="e" horiz-adv-x="1114" d="M100 520v45q0 115 27.5 212t82.5 172t144 117t205 42t204.5 -42t142.5 -117t81 -172t27 -212v-82h-768q5 -184 84.5 -284.5t238.5 -100.5q78 0 139 22.5t97 59t54 79.5t18 89h137v-8q0 -65 -27.5 -128t-80 -116.5t-140 -86t-197.5 -32.5q-96 0 -174.5 27.5t-132.5 76.5 t-91 118t-54 149t-17 172zM246 602h622q-6 183 -83 284t-228 101q-150 0 -228 -101.5t-83 -283.5z" />
<glyph unicode="f" horiz-adv-x="778" d="M63 956v129h173v252q0 169 85 246.5t232 77.5q91 0 152 -23v-125q-13 6 -49 12.5t-68 6.5q-109 0 -159 -45t-50 -168v-234h305v-129h-305v-956h-143v956h-173z" />
<glyph unicode="g" horiz-adv-x="1099" d="M100 559v45q0 83 14.5 157t47 138t80.5 110t118 72.5t156 26.5q220 0 324 -168l20 145h119l-12 -307v-788q0 -94 -23.5 -169t-73 -133t-133 -89t-196.5 -31q-114 0 -197 31.5t-131 88t-70 127.5t-22 158v27h137q0 -157 66 -232t215 -75q152 0 218 75.5t66 229.5v201 q-104 -144 -307 -144q-107 0 -188.5 39.5t-130.5 109.5t-73 159.5t-24 195.5zM246 559q0 -175 76 -275t225 -100q169 0 276 166v461q-105 168 -276 168q-148 0 -224.5 -101t-76.5 -274v-45z" />
<glyph unicode="h" horiz-adv-x="1081" d="M135 0v1638h144v-684q118 154 348 154q157 0 243 -95.5t86 -252.5v-760h-143v739q0 120 -62 180t-173 60q-194 0 -299 -168v-811h-144z" />
<glyph unicode="i" horiz-adv-x="442" d="M129 1341v185h184v-185h-184zM150 0v1085h143v-1085h-143z" />
<glyph unicode="j" horiz-adv-x="442" d="M-176 -285q40 -18 117 -18q109 0 159 45t50 168v1175h143v-1194q0 -168 -85 -245.5t-233 -77.5q-92 0 -151 22v125zM129 1341v185h184v-185h-184z" />
<glyph unicode="k" horiz-adv-x="1026" d="M133 0v1638h143v-1126l517 573h178l-373 -411l373 -674h-164l-307 565l-224 -246v-319h-143z" />
<glyph unicode="l" horiz-adv-x="442" d="M150 0v1638h143v-1638h-143z" />
<glyph unicode="m" horiz-adv-x="1648" d="M123 1085h119l20 -147q49 76 133 123t203 47q107 0 178.5 -46t102.5 -134q47 81 132.5 130.5t209.5 49.5q146 0 224.5 -84t78.5 -238v-786h-144v766q0 117 -54.5 165t-154.5 48q-54 0 -99 -15t-77.5 -42t-52.5 -51t-41 -56v-815h-143v766q0 117 -54.5 165t-154.5 48 q-54 0 -99 -15t-77.5 -42t-52.5 -51t-41 -56v-815h-144v778z" />
<glyph unicode="n" horiz-adv-x="1081" d="M123 1085h119l20 -153q116 176 365 176q157 0 243 -95.5t86 -252.5v-760h-143v739q0 120 -62 180t-173 60q-194 0 -299 -168v-811h-144v778z" />
<glyph unicode="o" horiz-adv-x="1114" d="M100 518v49q0 115 27 211.5t81 171t143.5 116.5t205.5 42t205.5 -42t143.5 -116.5t81 -171t27 -211.5v-49q0 -115 -27 -211.5t-81 -171t-143.5 -116.5t-205.5 -42t-205.5 42t-143.5 116.5t-81 171t-27 211.5zM246 518q0 -193 77.5 -302.5t233.5 -109.5t233.5 109.5 t77.5 302.5v49q0 193 -77.5 302.5t-233.5 109.5t-233.5 -109.5t-77.5 -302.5v-49z" />
<glyph unicode="p" horiz-adv-x="1099" d="M123 1085h119l20 -147q105 170 324 170q108 0 189.5 -41.5t130 -116.5t72 -171t23.5 -212v-49q0 -116 -23.5 -212t-72 -171t-130 -116.5t-189.5 -41.5q-206 0 -307 146v-533h-144v1188zM279 274q100 -168 274 -168q150 0 225.5 109t75.5 303v49q0 194 -75.5 303 t-225.5 109q-174 0 -274 -168v-537z" />
<glyph unicode="q" horiz-adv-x="1103" d="M100 518v49q0 116 24 212t72.5 171t130 116.5t189.5 41.5q220 0 324 -172l20 149h121l-14 -307v-1188h-142v537q-105 -150 -309 -150q-108 0 -189.5 41.5t-130 116.5t-72.5 171t-24 212zM248 518q0 -194 75.5 -303t225.5 -109q171 0 276 168v537q-105 168 -276 168 q-150 0 -225.5 -109t-75.5 -303v-49z" />
<glyph unicode="r" horiz-adv-x="681" d="M123 1085h119l20 -143q47 74 124 120t179 46q6 0 13.5 -0.5t12 -1t5.5 -0.5v-137h-29q-185 0 -288 -164v-805h-144v778z" />
<glyph unicode="s" horiz-adv-x="1069" d="M117 324v8h143q0 -48 13.5 -87.5t43 -73.5t85.5 -53.5t133 -19.5q130 0 200 53.5t70 145.5q0 106 -65.5 146.5t-231.5 54.5q-143 12 -227.5 50.5t-117 95.5t-32.5 142v13q0 142 107.5 225.5t296.5 83.5q212 0 308.5 -97t96.5 -268v-8h-141q0 125 -59.5 188.5t-204.5 63.5 q-124 0 -192.5 -49t-68.5 -139q0 -60 22.5 -97t87 -62t179.5 -34q208 -18 298.5 -85t90.5 -214v-10q0 -144 -110 -232t-307 -88q-110 0 -194 30.5t-131 81.5t-70 110t-23 125z" />
<glyph unicode="t" horiz-adv-x="819" d="M63 956v129h173v308h143v-308h346v-129h-346v-637q0 -123 50 -168t159 -45q32 0 68 6.5t49 12.5v-125q-61 -23 -152 -23q-147 0 -232 77.5t-85 246.5v655h-173z" />
<glyph unicode="u" horiz-adv-x="1081" d="M125 326v759h141v-739q0 -120 62.5 -180t173.5 -60q196 0 301 168v811h143v-778l12 -307h-118l-23 152q-50 -78 -141 -126.5t-221 -48.5q-158 0 -244 96t-86 253z" />
<glyph unicode="v" horiz-adv-x="1048" d="M51 1085h154l319 -950l322 950h153l-381 -1085h-188z" />
<glyph unicode="w" horiz-adv-x="1468" d="M63 1085h144l188 -935l252 935h174l252 -935l189 935h143l-234 -1085h-190l-248 926l-248 -926h-188z" />
<glyph unicode="x" horiz-adv-x="993" d="M47 0l340 549l-340 536h170l279 -444l280 444h170l-342 -536l342 -549h-170l-280 457l-279 -457h-170z" />
<glyph unicode="y" horiz-adv-x="991" d="M47 1085h154l309 -886l311 886h154l-389 -1044l-154 -451h-166l170 451z" />
<glyph unicode="z" horiz-adv-x="948" d="M74 0v98l596 860l-242 -2h-334v129h760v-98l-598 -860l242 2h376v-129h-800z" />
<glyph unicode="{" horiz-adv-x="649" d="M51 670v135q94 0 135 36.5t41 143.5v451q0 80 25 138t69 88.5t94.5 44t110.5 13.5h37v-135q-97 0 -144.5 -45.5t-47.5 -165.5v-426q0 -157 -111 -211q111 -57 111 -211v-426q0 -120 47.5 -165.5t144.5 -45.5v-135h-37q-60 0 -110.5 13.5t-94.5 44.5t-69 89t-25 138v450 q0 107 -41 144t-135 37z" />
<glyph unicode="|" horiz-adv-x="411" d="M135 -246v1966h144v-1966h-144z" />
<glyph unicode="}" horiz-adv-x="649" d="M86 -111q98 0 145.5 46t47.5 165v426q0 154 110 211q-110 53 -110 211v426q0 119 -47.5 165t-145.5 46v135h37q60 0 110.5 -13.5t94.5 -44t69 -88.5t25 -138v-451q0 -107 41 -143.5t135 -36.5v-135q-94 0 -135 -37t-41 -144v-450q0 -80 -25 -138t-69 -89t-94.5 -44.5 t-110.5 -13.5h-37v135z" />
<glyph unicode="~" d="M76 768q112 156 286 156q73 0 145.5 -23t122 -50t115 -50t125.5 -23q106 0 201 115l82 -82q-116 -156 -287 -156q-73 0 -145.5 23t-122 50t-115 50t-125.5 23t-112 -35t-88 -80z" />
<glyph unicode="&#xa1;" horiz-adv-x="442" d="M129 901v184h184v-184h-184zM133 -410l39 1108h98l39 -1108h-176z" />
<glyph unicode="&#xa2;" d="M127 770v57q0 324 129.5 493t384.5 169q24 0 64 -4l57 235h127l-62 -258q137 -45 206 -159t69 -277v-49h-146q0 277 -161 350l-256 -1071q39 -10 102 -10h6q160 0 234.5 88t74.5 244h146v-27q0 -201 -115.5 -319.5t-345.5 -118.5q-71 0 -133 12l-59 -248h-127l69 291 q-264 138 -264 602zM276 770q0 -334 150 -457l248 1039q-4 0 -13.5 1t-13.5 1h-6q-180 0 -272.5 -132.5t-92.5 -394.5v-57z" />
<glyph unicode="&#xa3;" d="M115 0v135h338q-6 75 -22.5 159t-31.5 138t-44 150.5t-40 136.5h-200v133h164q-41 171 -41 330q0 199 112 318.5t322 119.5q121 0 209.5 -42.5t140.5 -121t76 -179.5t24 -228v-25h-145q0 220 -74.5 341.5t-230.5 121.5q-144 0 -214.5 -84.5t-70.5 -235.5q0 -122 47 -315 h412v-133h-375q36 -139 50 -195.5t34.5 -174t24.5 -214.5h534v-135h-999z" />
<glyph unicode="&#xa5;" d="M35 1597h162l417 -905l418 905h162l-291 -614h236v-135h-299l-129 -275h428v-135h-451v-438h-147v438h-451v135h426l-129 275h-297v135h234z" />
<glyph unicode="&#xa6;" horiz-adv-x="411" d="M135 -246v910h144v-910h-144zM135 811v909h144v-909h-144z" />
<glyph unicode="&#xa7;" horiz-adv-x="1050" d="M84 788v13q0 190 186 264q-127 69 -127 233v13q0 142 107.5 225.5t296.5 83.5q212 0 309.5 -97.5t97.5 -267.5v-8h-143q0 124 -59.5 188t-204.5 64q-122 0 -190 -49.5t-68 -138.5q0 -60 22 -98t86 -64t178 -35q208 -18 299 -86.5t91 -218.5v-12q0 -94 -47.5 -162 t-139.5 -103q129 -73 129 -233v-12q0 -142 -107.5 -226t-297.5 -84q-212 0 -309 97.5t-97 267.5v8h144q0 -123 59.5 -187.5t202.5 -64.5q123 0 191.5 50t68.5 139q0 60 -22.5 98t-86.5 63.5t-178 34.5q-208 18 -299.5 86.5t-91.5 218.5zM233 799q0 -109 67.5 -151.5 t231.5 -53.5h9q133 0 204.5 55t71.5 150q0 109 -68 151.5t-233 53.5h-6q-133 0 -205 -55t-72 -150z" />
<glyph unicode="&#xa8;" horiz-adv-x="1024" d="M252 1346v180h178v-180h-178zM594 1346v180h178v-180h-178z" />
<glyph unicode="&#xa9;" horiz-adv-x="1884" d="M121 799q0 167 65 319t175 262t262 175t319 65t319 -65t262 -175t175 -262t65 -319t-65 -319t-175 -262.5t-262 -175.5t-319 -65t-319 65t-262 175.5t-175 262.5t-65 319zM209 799q0 -200 98 -368.5t266.5 -266.5t368.5 -98t368.5 98t266.5 266.5t98 368.5t-98 368.5 t-266.5 266.5t-368.5 98t-368.5 -98t-266.5 -266.5t-98 -368.5zM516 774v49q0 70 14.5 136.5t47 129.5t80.5 110t121.5 75.5t162.5 28.5q84 0 152.5 -22t112 -56t73 -78.5t41.5 -87.5t12 -84v-35h-133q0 47 -13 87t-41.5 74.5t-80 54.5t-121.5 20q-76 0 -133.5 -30 t-90.5 -81.5t-49 -112.5t-16 -129v-49q0 -68 16 -129t49 -112t90.5 -81t133.5 -30q72 0 124.5 20t79.5 53.5t39.5 68.5t12.5 73h133v-27q0 -40 -12 -81t-41.5 -83.5t-73 -75.5t-112 -54t-152.5 -21q-111 0 -196 42.5t-133.5 113.5t-72.5 152.5t-24 170.5z" />
<glyph unicode="&#xaa;" horiz-adv-x="798" d="M78 1001v15q0 51 15 91.5t39.5 66t61 45t72.5 29.5t82 18l234 34v19q0 100 -39 147t-135 47q-98 0 -136.5 -48t-38.5 -130h-124v15q0 51 13.5 95.5t45.5 85.5t93.5 65t148.5 24q164 0 232.5 -78t68.5 -223v-297l10 -227h-109l-18 108q-96 -127 -279 -127q-113 0 -175 62 t-62 163zM96 434v117h625v-117h-625zM209 1014q0 -54 35.5 -90.5t107.5 -36.5q149 0 230 112v213l-217 -34q-74 -12 -115 -50.5t-41 -101.5v-12z" />
<glyph unicode="&#xab;" horiz-adv-x="1058" d="M102 633v127l418 313v-143l-305 -234l305 -233v-144zM539 633v127l417 313v-143l-307 -234l307 -233v-144z" />
<glyph unicode="&#xac;" d="M98 1004v137h1032v-705h-135v568h-897z" />
<glyph unicode="&#xad;" horiz-adv-x="673" d="M82 651v131h510v-131h-510z" />
<glyph unicode="&#xae;" horiz-adv-x="675" d="M39 1362q0 123 88 211t211 88t211 -88t88 -211t-88 -211t-211 -88t-211 88t-88 211zM88 1362q0 -103 73.5 -176.5t176.5 -73.5t176.5 73.5t73.5 176.5t-73.5 176.5t-176.5 73.5t-176.5 -73.5t-73.5 -176.5zM207 1186v352h147q52 0 83.5 -26.5t31.5 -77.5v-15 q0 -73 -61 -96l61 -137h-74l-55 129h-61v-129h-72zM279 1374h61q57 0 57 49v7q0 47 -57 47h-61v-103z" />
<glyph unicode="&#xaf;" horiz-adv-x="1024" d="M272 1360v135h480v-135h-480z" />
<glyph unicode="&#xb0;" horiz-adv-x="819" d="M96 1300v9q0 142 88.5 226.5t225.5 84.5q136 0 224.5 -84.5t88.5 -226.5v-9q0 -142 -88 -225.5t-225 -83.5t-225.5 83.5t-88.5 225.5zM205 1298q0 -90 57 -144t141 -54h13q84 0 141 54t57 144v15q0 90 -56.5 143t-141.5 53h-13q-85 0 -141.5 -53t-56.5 -143v-15z" />
<glyph unicode="&#xb1;" d="M98 330v135h1032v-135h-1032zM98 907v137h449v285h135v-285h448v-137h-448v-284h-135v284h-449z" />
<glyph unicode="&#xb2;" horiz-adv-x="614" d="M51 799v75l324 353q36 38 50.5 66.5t14.5 66.5v10q0 62 -35.5 96.5t-95.5 34.5h-6q-65 0 -98 -40t-33 -130h-121v23q0 256 256 256q128 0 192 -62t64 -157v-15q0 -64 -20 -107.5t-72 -99.5l-244 -264h336v-106h-512z" />
<glyph unicode="&#xb3;" horiz-adv-x="614" d="M45 1040v15h123q0 -162 133 -162h10q57 0 96 32t39 93v14q0 58 -35 89.5t-94 31.5h-112v107h108q58 0 92.5 29t34.5 85v8q0 54 -36 86.5t-93 32.5h-10q-65 0 -97 -40t-32 -130h-121v23q0 256 256 256q127 0 191.5 -61t64.5 -152v-17q0 -123 -104 -174q108 -55 108 -180 v-18q0 -91 -69 -157.5t-191 -66.5q-130 0 -196 67t-66 189z" />
<glyph unicode="&#xb4;" horiz-adv-x="1024" d="M438 1257l185 340h155l-192 -340h-148z" />
<glyph unicode="&#xb6;" horiz-adv-x="1050" d="M74 1102v41q0 107 29.5 188.5t76 131t113 80.5t131.5 42.5t139 11.5h352v-1597h-147v1464h-82v-1464h-143v649q-72 1 -135.5 14t-126.5 45t-107.5 81.5t-72 129.5t-27.5 183zM225 1108q0 -76 20.5 -134.5t51.5 -93.5t75 -57.5t85 -31t86 -9.5v682q-45 -1 -86 -9.5 t-85 -31t-75 -57t-51.5 -93t-20.5 -134.5v-31z" />
<glyph unicode="&#xb7;" horiz-adv-x="444" d="M133 627v180h178v-180h-178z" />
<glyph unicode="&#xb8;" horiz-adv-x="1232" d="M332 -391l30 90q60 -31 144 -31q62 0 90.5 14t28.5 50q0 63 -127 63l-60 -6l-39 47l64 164h98l-43 -115h8q85 0 145 -38.5t60 -118.5q0 -160 -211 -160q-126 0 -188 41z" />
<glyph unicode="&#xb9;" horiz-adv-x="614" d="M41 1430l250 169h88v-694h188v-106h-501v106h190v539l-156 -105z" />
<glyph unicode="&#xba;" horiz-adv-x="856" d="M82 1178v41q0 180 87 290.5t259 110.5q173 0 259.5 -110t86.5 -291v-41q0 -116 -35 -204.5t-114.5 -143t-196.5 -54.5q-172 0 -259 111.5t-87 290.5zM98 434v117h662v-117h-662zM213 1178q0 -134 53 -210.5t162 -76.5t162 76.5t53 210.5v41q0 135 -53 210.5t-162 75.5 t-162 -75.5t-53 -210.5v-41z" />
<glyph unicode="&#xbb;" horiz-adv-x="1058" d="M102 319v144l306 233l-306 234v143l418 -313v-127zM539 319v144l303 233l-303 234v143l417 -313v-127z" />
<glyph unicode="&#xbc;" horiz-adv-x="1638" d="M41 1430l250 169h88v-694h188v-106h-501v106h190v539l-156 -105zM164 0l1179 1597h132l-1180 -1597h-131zM1053 190v84l329 525h119v-500h107v-109h-107v-190h-123v190h-325zM1188 297l69 2h121v221l2 80z" />
<glyph unicode="&#xbd;" horiz-adv-x="1638" d="M41 1430l250 169h88v-694h188v-106h-501v106h190v539l-156 -105zM164 0l1179 1597h132l-1180 -1597h-131zM1075 0v76l324 352q36 38 50.5 67t14.5 66v10q0 62 -35.5 96.5t-95.5 34.5h-6q-65 0 -98 -40t-33 -130h-121v23q0 256 256 256q128 0 192 -62t64 -157v-14 q0 -64 -20 -107.5t-72 -99.5l-244 -265h336v-106h-512z" />
<glyph unicode="&#xbe;" horiz-adv-x="1638" d="M45 1040v15h123q0 -162 133 -162h10q57 0 96 32t39 93v14q0 58 -35 89.5t-94 31.5h-112v107h108q58 0 92.5 29t34.5 85v8q0 54 -36 86.5t-93 32.5h-10q-65 0 -97 -40t-32 -130h-121v23q0 256 256 256q127 0 191.5 -61t64.5 -152v-17q0 -123 -104 -174q108 -55 108 -180 v-18q0 -91 -69 -157.5t-191 -66.5q-130 0 -196 67t-66 189zM164 0l1179 1597h132l-1180 -1597h-131zM1053 190v84l329 525h119v-500h107v-109h-107v-190h-123v190h-325zM1188 297l69 2h121v221l2 80z" />
<glyph unicode="&#xbf;" horiz-adv-x="931" d="M57 -59q0 82 19.5 150t50.5 115.5t68.5 89t76 82t70.5 83.5t53.5 103.5t24.5 133.5h96q3 -73 -12.5 -139t-42.5 -117t-60.5 -98t-67.5 -91.5t-62 -88.5t-46 -98t-18 -111q0 -254 252 -254q64 0 111 19t77.5 53.5t49.5 88t26.5 116.5t7.5 145h148v-25q0 -95 -11.5 -171 t-40.5 -145t-75.5 -114.5t-120.5 -72.5t-172 -27q-197 0 -299.5 101t-102.5 272zM377 901v184h184v-184h-184z" />
<glyph unicode="&#xc0;" horiz-adv-x="1251" d="M59 0l461 1614h211l461 -1614h-160l-114 410h-584l-115 -410h-160zM371 543h508l-254 909zM424 1946h151l123 -226h-147z" />
<glyph unicode="&#xc1;" horiz-adv-x="1251" d="M59 0l461 1614h211l461 -1614h-160l-114 410h-584l-115 -410h-160zM371 543h508l-254 909zM551 1720l123 226h151l-127 -226h-147z" />
<glyph unicode="&#xc2;" horiz-adv-x="1251" d="M59 0l461 1614h211l461 -1614h-160l-114 410h-584l-115 -410h-160zM342 1720l217 226h131l217 -226h-143l-139 135l-140 -135h-143zM371 543h508l-254 909z" />
<glyph unicode="&#xc3;" horiz-adv-x="1251" d="M59 0l461 1614h211l461 -1614h-160l-114 410h-584l-115 -410h-160zM313 1749q0 96 44 143t118 47q43 0 86.5 -17t73 -38t63.5 -38t60 -17q76 0 76 88h102q0 -96 -44 -143.5t-118 -47.5q-43 0 -86.5 17.5t-72.5 38t-63 38t-60 17.5q-76 0 -76 -88h-103zM371 543h508 l-254 909z" />
<glyph unicode="&#xc4;" horiz-adv-x="1251" d="M59 0l461 1614h211l461 -1614h-160l-114 410h-584l-115 -410h-160zM371 543h508l-254 909zM383 1761v144h162v-144h-162zM705 1761v144h161v-144h-161z" />
<glyph unicode="&#xc5;" horiz-adv-x="1251" d="M59 0l461 1614q-40 25 -64 68.5t-24 93.5q0 79 56.5 135.5t136.5 56.5q79 0 135.5 -56t56.5 -136q0 -50 -24 -93.5t-64 -68.5h2l461 -1614h-160l-114 410h-584l-115 -410h-160zM371 543h508l-254 909zM510 1776q0 -47 34 -81t81 -34t80.5 34t33.5 81t-33.5 80.5 t-80.5 33.5t-81 -33.5t-34 -80.5z" />
<glyph unicode="&#xc6;" horiz-adv-x="1714" d="M41 0l592 1597h999v-133h-774l86 -583h586v-131h-567l90 -617h579v-133h-714l-60 426h-506l-153 -426h-158zM399 557h441l-123 883z" />
<glyph unicode="&#xc7;" horiz-adv-x="1265" d="M117 758v82q0 410 131.5 595t410.5 185q504 0 504 -547v-57h-151q0 248 -80 359.5t-260 111.5h-15q-201 0 -295 -154t-94 -493v-82q0 -339 93.5 -493t295.5 -154h15q176 0 258 103t82 306h151v-20q0 -242 -112.5 -374.5t-337.5 -145.5l-35 -95h8q85 0 145 -38.5 t60 -118.5q0 -160 -211 -160q-126 0 -188 41l30 90q60 -31 144 -31q62 0 90 14t28 50q0 63 -127 63l-59 -6l-39 47l55 144q-255 14 -376 199.5t-121 578.5z" />
<glyph unicode="&#xc8;" horiz-adv-x="1124" d="M152 0v1597h890v-133h-743v-583h641v-131h-641v-617h743v-133h-890zM412 1946h151l123 -226h-147z" />
<glyph unicode="&#xc9;" horiz-adv-x="1124" d="M152 0v1597h890v-133h-743v-583h641v-131h-641v-617h743v-133h-890zM539 1720l123 226h151l-127 -226h-147z" />
<glyph unicode="&#xca;" horiz-adv-x="1124" d="M152 0v1597h890v-133h-743v-583h641v-131h-641v-617h743v-133h-890zM330 1720l217 226h131l217 -226h-143l-140 135l-139 -135h-143z" />
<glyph unicode="&#xcb;" horiz-adv-x="1124" d="M152 0v1597h890v-133h-743v-583h641v-131h-641v-617h743v-133h-890zM371 1761v144h161v-144h-161zM692 1761v144h162v-144h-162z" />
<glyph unicode="&#xcc;" horiz-adv-x="468" d="M35 1946h151l123 -226h-147zM162 0v1597h147v-1597h-147z" />
<glyph unicode="&#xcd;" horiz-adv-x="468" d="M162 0v1597h147v-1597h-147zM162 1720l123 226h151l-127 -226h-147z" />
<glyph unicode="&#xce;" horiz-adv-x="468" d="M-47 1720l217 226h131l217 -226h-143l-139 135l-140 -135h-143zM162 0v1597h147v-1597h-147z" />
<glyph unicode="&#xcf;" horiz-adv-x="468" d="M-6 1761v144h162v-144h-162zM162 0v1597h147v-1597h-147zM315 1761v144h162v-144h-162z" />
<glyph unicode="&#xd0;" horiz-adv-x="1431" d="M37 756v121h237v720h422q150 0 261.5 -41t193 -129.5t123 -235.5t41.5 -351v-82q0 -204 -41.5 -351t-123 -236t-193.5 -130t-261 -41h-422v756h-237zM422 133h262q118 0 205 34t149.5 107.5t93.5 194t31 289.5v82q0 331 -120 477.5t-359 146.5h-262v-587h436v-121h-436 v-623z" />
<glyph unicode="&#xd1;" horiz-adv-x="1349" d="M152 0v1597h159l754 -1347l-6 371v976h139v-1597h-160l-755 1348l8 -371v-977h-139zM362 1749q0 96 44 143t118 47q43 0 86.5 -17t73 -38t63.5 -38t60 -17q76 0 76 88h102q0 -96 -44 -143.5t-118 -47.5q-43 0 -86.5 17.5t-72.5 38t-63 38t-60 17.5q-76 0 -76 -88h-103z " />
<glyph unicode="&#xd2;" horiz-adv-x="1329" d="M117 758v82q0 409 134.5 594.5t412.5 185.5q279 0 413.5 -185.5t134.5 -594.5v-82q0 -409 -134.5 -595t-413.5 -186q-278 0 -412.5 186t-134.5 595zM268 758q0 -339 93.5 -493t295.5 -154h15q202 0 295.5 154t93.5 493v82q0 339 -93.5 493t-295.5 154h-15 q-202 0 -295.5 -154t-93.5 -493v-82zM463 1946h151l123 -226h-147z" />
<glyph unicode="&#xd3;" horiz-adv-x="1329" d="M117 758v82q0 409 134.5 594.5t412.5 185.5q279 0 413.5 -185.5t134.5 -594.5v-82q0 -409 -134.5 -595t-413.5 -186q-278 0 -412.5 186t-134.5 595zM268 758q0 -339 93.5 -493t295.5 -154h15q202 0 295.5 154t93.5 493v82q0 339 -93.5 493t-295.5 154h-15 q-202 0 -295.5 -154t-93.5 -493v-82zM590 1720l123 226h151l-127 -226h-147z" />
<glyph unicode="&#xd4;" horiz-adv-x="1329" d="M117 758v82q0 409 134.5 594.5t412.5 185.5q279 0 413.5 -185.5t134.5 -594.5v-82q0 -409 -134.5 -595t-413.5 -186q-278 0 -412.5 186t-134.5 595zM268 758q0 -339 93.5 -493t295.5 -154h15q202 0 295.5 154t93.5 493v82q0 339 -93.5 493t-295.5 154h-15 q-202 0 -295.5 -154t-93.5 -493v-82zM381 1720l217 226h131l217 -226h-143l-139 135l-140 -135h-143z" />
<glyph unicode="&#xd5;" horiz-adv-x="1329" d="M117 758v82q0 409 134.5 594.5t412.5 185.5q279 0 413.5 -185.5t134.5 -594.5v-82q0 -409 -134.5 -595t-413.5 -186q-278 0 -412.5 186t-134.5 595zM268 758q0 -339 93.5 -493t295.5 -154h15q202 0 295.5 154t93.5 493v82q0 339 -93.5 493t-295.5 154h-15 q-202 0 -295.5 -154t-93.5 -493v-82zM352 1749q0 96 44 143t118 47q43 0 86.5 -17t73 -38t63.5 -38t60 -17q75 0 75 88h103q0 -96 -44 -143.5t-118 -47.5q-54 0 -108 28t-98.5 55.5t-76.5 27.5q-75 0 -75 -88h-103z" />
<glyph unicode="&#xd6;" horiz-adv-x="1329" d="M117 758v82q0 409 134.5 594.5t412.5 185.5q279 0 413.5 -185.5t134.5 -594.5v-82q0 -409 -134.5 -595t-413.5 -186q-278 0 -412.5 186t-134.5 595zM268 758q0 -339 93.5 -493t295.5 -154h15q202 0 295.5 154t93.5 493v82q0 339 -93.5 493t-295.5 154h-15 q-202 0 -295.5 -154t-93.5 -493v-82zM422 1761v144h162v-144h-162zM743 1761v144h162v-144h-162z" />
<glyph unicode="&#xd7;" d="M74 354l444 445l-444 444l96 96l444 -444l445 444l96 -96l-444 -444l444 -445l-96 -96l-445 444l-444 -444z" />
<glyph unicode="&#xd8;" horiz-adv-x="1306" d="M111 0l118 195q-112 187 -112 563v82q0 409 134.5 594.5t412.5 185.5q227 0 356 -123l61 100h119l-110 -182q122 -186 122 -575v-82q0 -409 -134.5 -595t-413.5 -186q-238 0 -369 134l-66 -111h-118zM268 758q0 -264 54 -410l620 1020q-91 119 -270 119h-15 q-202 0 -295.5 -154t-93.5 -493v-82zM375 242q92 -131 282 -131h15q202 0 295.5 154t93.5 493v82q0 274 -62 428z" />
<glyph unicode="&#xd9;" horiz-adv-x="1308" d="M141 496v1101h148v-1091q0 -150 41 -237.5t118 -122.5t205 -35q192 0 279.5 87.5t87.5 307.5v1091h147v-1101q0 -143 -32 -243t-98 -161t-159.5 -88t-224.5 -27q-263 0 -387.5 119t-124.5 400zM453 1946h151l123 -226h-147z" />
<glyph unicode="&#xda;" horiz-adv-x="1308" d="M141 496v1101h148v-1091q0 -150 41 -237.5t118 -122.5t205 -35q192 0 279.5 87.5t87.5 307.5v1091h147v-1101q0 -143 -32 -243t-98 -161t-159.5 -88t-224.5 -27q-263 0 -387.5 119t-124.5 400zM580 1720l122 226h152l-127 -226h-147z" />
<glyph unicode="&#xdb;" horiz-adv-x="1308" d="M141 496v1101h148v-1091q0 -150 41 -237.5t118 -122.5t205 -35q192 0 279.5 87.5t87.5 307.5v1091h147v-1101q0 -143 -32 -243t-98 -161t-159.5 -88t-224.5 -27q-263 0 -387.5 119t-124.5 400zM371 1720l217 226h131l217 -226h-143l-140 135l-139 -135h-143z" />
<glyph unicode="&#xdc;" horiz-adv-x="1308" d="M141 496v1101h148v-1091q0 -150 41 -237.5t118 -122.5t205 -35q192 0 279.5 87.5t87.5 307.5v1091h147v-1101q0 -143 -32 -243t-98 -161t-159.5 -88t-224.5 -27q-263 0 -387.5 119t-124.5 400zM412 1761v144h161v-144h-161zM733 1761v144h162v-144h-162z" />
<glyph unicode="&#xdd;" horiz-adv-x="1181" d="M43 1597h160l389 -931l387 931h162l-475 -1114v-483h-148v483zM518 1720l123 226h152l-127 -226h-148z" />
<glyph unicode="&#xde;" horiz-adv-x="1173" d="M152 0v1597h147v-323h295q74 0 139 -11.5t131 -43t113 -80.5t76.5 -131t29.5 -189v-41q0 -107 -29.5 -188.5t-76.5 -131t-113 -80.5t-131 -42.5t-139 -11.5h-295v-324h-147zM299 457h299q46 0 88 7t88.5 29t80 56.5t55.5 95t22 139.5v29q0 79 -22 139.5t-55.5 95.5 t-80 56.5t-88.5 29t-88 7.5h-299v-684z" />
<glyph unicode="&#xdf;" horiz-adv-x="1169" d="M133 0v1247q0 192 103.5 303t316.5 111q208 0 314 -113t106 -301v-14q0 -130 -65 -229.5t-208 -192.5l103 -66q162 -107 235.5 -198t73.5 -211v-10q0 -53 -9 -99t-33 -93.5t-62.5 -81t-103 -54.5t-148.5 -21t-148.5 21t-102.5 54t-62.5 80t-33 92.5t-8.5 97.5v10h127 q0 -234 222 -234q219 0 219 232q0 87 -63 157t-212 166l-157 105v94q157 86 224.5 172.5t67.5 208.5q0 138 -67.5 216.5t-208.5 78.5q-140 0 -208.5 -79t-68.5 -212v-1237h-143z" />
<glyph unicode="&#xe0;" horiz-adv-x="1048" d="M92 274v21q0 68 20.5 122t53 88.5t80.5 59.5t95 38t105 22l328 51v29q0 146 -56 214t-196 68q-74 0 -125.5 -20t-78 -58t-37.5 -81.5t-11 -100.5h-137v18q0 53 9.5 101t36.5 97.5t69 84.5t113 57.5t163 22.5q110 0 188 -28.5t122.5 -83.5t64 -126t19.5 -165v-398l12 -307 h-119l-23 152q-134 -175 -382 -175q-147 0 -230.5 82t-83.5 215zM236 287q0 -79 52 -132t154 -53q226 0 332 172v297l-315 -51q-223 -40 -223 -215v-18zM258 1597h156l184 -340h-147z" />
<glyph unicode="&#xe1;" horiz-adv-x="1048" d="M92 274v21q0 68 20.5 122t53 88.5t80.5 59.5t95 38t105 22l328 51v29q0 146 -56 214t-196 68q-74 0 -125.5 -20t-78 -58t-37.5 -81.5t-11 -100.5h-137v18q0 53 9.5 101t36.5 97.5t69 84.5t113 57.5t163 22.5q110 0 188 -28.5t122.5 -83.5t64 -126t19.5 -165v-398l12 -307 h-119l-23 152q-134 -175 -382 -175q-147 0 -230.5 82t-83.5 215zM236 287q0 -79 52 -132t154 -53q226 0 332 172v297l-315 -51q-223 -40 -223 -215v-18zM451 1257l184 340h156l-193 -340h-147z" />
<glyph unicode="&#xe2;" horiz-adv-x="1048" d="M92 274v21q0 68 20.5 122t53 88.5t80.5 59.5t95 38t105 22l328 51v29q0 146 -56 214t-196 68q-74 0 -125.5 -20t-78 -58t-37.5 -81.5t-11 -100.5h-137v18q0 53 9.5 101t36.5 97.5t69 84.5t113 57.5t163 22.5q110 0 188 -28.5t122.5 -83.5t64 -126t19.5 -165v-398l12 -307 h-119l-23 152q-134 -175 -382 -175q-147 0 -230.5 82t-83.5 215zM193 1257l268 340h127l268 -340h-141l-191 232l-190 -232h-141zM236 287q0 -79 52 -132t154 -53q226 0 332 172v297l-315 -51q-223 -40 -223 -215v-18z" />
<glyph unicode="&#xe3;" horiz-adv-x="1048" d="M92 274v21q0 68 20.5 122t53 88.5t80.5 59.5t95 38t105 22l328 51v29q0 146 -56 214t-196 68q-74 0 -125.5 -20t-78 -58t-37.5 -81.5t-11 -100.5h-137v18q0 53 9.5 101t36.5 97.5t69 84.5t113 57.5t163 22.5q110 0 188 -28.5t122.5 -83.5t64 -126t19.5 -165v-398l12 -307 h-119l-23 152q-134 -175 -382 -175q-147 0 -230.5 82t-83.5 215zM205 1339q0 105 44.5 158t121.5 53q54 0 108 -27.5t99.5 -55t78.5 -27.5q74 0 74 88h113q0 -105 -44.5 -158t-121.5 -53q-43 0 -87 17t-73.5 38t-64.5 38t-62 17q-74 0 -74 -88h-112zM236 287q0 -79 52 -132 t154 -53q226 0 332 172v297l-315 -51q-223 -40 -223 -215v-18z" />
<glyph unicode="&#xe4;" horiz-adv-x="1048" d="M92 274v21q0 68 20.5 122t53 88.5t80.5 59.5t95 38t105 22l328 51v29q0 146 -56 214t-196 68q-74 0 -125.5 -20t-78 -58t-37.5 -81.5t-11 -100.5h-137v18q0 53 9.5 101t36.5 97.5t69 84.5t113 57.5t163 22.5q110 0 188 -28.5t122.5 -83.5t64 -126t19.5 -165v-398l12 -307 h-119l-23 152q-134 -175 -382 -175q-147 0 -230.5 82t-83.5 215zM236 287q0 -79 52 -132t154 -53q226 0 332 172v297l-315 -51q-223 -40 -223 -215v-18zM264 1346v180h178v-180h-178zM606 1346v180h178v-180h-178z" />
<glyph unicode="&#xe5;" horiz-adv-x="1048" d="M92 274v21q0 68 20.5 122t53 88.5t80.5 59.5t95 38t105 22l328 51v29q0 146 -56 214t-196 68q-74 0 -125.5 -20t-78 -58t-37.5 -81.5t-11 -100.5h-137v18q0 53 9.5 101t36.5 97.5t69 84.5t113 57.5t163 22.5q110 0 188 -28.5t122.5 -83.5t64 -126t19.5 -165v-398l12 -307 h-119l-23 152q-134 -175 -382 -175q-147 0 -230.5 82t-83.5 215zM236 287q0 -79 52 -132t154 -53q226 0 332 172v297l-315 -51q-223 -40 -223 -215v-18zM332 1427q0 80 56.5 136.5t135.5 56.5q80 0 136.5 -57t56.5 -136t-56.5 -135.5t-136.5 -56.5t-136 56.5t-56 135.5z M410 1427q0 -47 33.5 -80.5t80.5 -33.5t81 33.5t34 80.5t-34 81t-81 34t-80.5 -34t-33.5 -81z" />
<glyph unicode="&#xe6;" horiz-adv-x="1783" d="M92 274v21q0 68 21 122t53.5 88.5t81.5 59.5t96 38t105 22l325 51v29q0 146 -56 214t-196 68q-74 0 -125.5 -20t-78 -58t-37.5 -81.5t-11 -100.5h-137v18q0 53 9.5 101t36.5 97.5t69 84.5t113 57.5t163 22.5q146 0 228 -52t116 -151q112 203 365 203q116 0 205 -42 t143 -117t81.5 -172t27.5 -212v-82h-770q5 -184 85 -284.5t240 -100.5q149 0 227 75.5t78 174.5h140v-8q0 -52 -16.5 -102.5t-52.5 -98t-87.5 -83.5t-126.5 -57.5t-164 -21.5q-275 0 -393 211q-66 -92 -177 -151.5t-261 -59.5t-235 82t-85 215zM236 285q0 -79 52 -132 t154 -53q229 0 338 183l21 28q-27 95 -27 209v49l-313 -51q-225 -40 -225 -215v-18zM920 602h622q-6 183 -83 284t-228 101q-150 0 -228 -101.5t-83 -283.5z" />
<glyph unicode="&#xe7;" horiz-adv-x="1069" d="M100 518v49q0 116 27 212t80.5 170.5t141.5 116.5t204 42q107 0 190 -34t130.5 -90t71.5 -121t24 -134v-41h-138q0 133 -67.5 212t-208.5 79q-156 0 -232.5 -109.5t-76.5 -302.5v-49q0 -193 76.5 -302.5t232.5 -109.5q142 0 209 77t67 194h138v-33q0 -63 -21 -122.5 t-62.5 -111.5t-113.5 -87t-166 -43l-35 -95h9q85 0 144.5 -38.5t59.5 -118.5q0 -160 -211 -160q-126 0 -188 41l31 90q60 -31 143 -31q62 0 90.5 14t28.5 50q0 63 -127 63l-59 -6l-39 47l55 144q-138 10 -231.5 85t-135 190t-41.5 263z" />
<glyph unicode="&#xe8;" horiz-adv-x="1114" d="M100 520v45q0 115 27.5 212t82.5 172t144 117t205 42t204.5 -42t142.5 -117t81 -172t27 -212v-82h-768q5 -184 84.5 -284.5t238.5 -100.5q78 0 139 22.5t97 59t54 79.5t18 89h137v-8q0 -65 -27.5 -128t-80 -116.5t-140 -86t-197.5 -32.5q-96 0 -174.5 27.5t-132.5 76.5 t-91 118t-54 149t-17 172zM246 602h622q-6 183 -83 284t-228 101q-150 0 -228 -101.5t-83 -283.5zM293 1597h156l184 -340h-148z" />
<glyph unicode="&#xe9;" horiz-adv-x="1114" d="M100 520v45q0 115 27.5 212t82.5 172t144 117t205 42t204.5 -42t142.5 -117t81 -172t27 -212v-82h-768q5 -184 84.5 -284.5t238.5 -100.5q78 0 139 22.5t97 59t54 79.5t18 89h137v-8q0 -65 -27.5 -128t-80 -116.5t-140 -86t-197.5 -32.5q-96 0 -174.5 27.5t-132.5 76.5 t-91 118t-54 149t-17 172zM246 602h622q-6 183 -83 284t-228 101q-150 0 -228 -101.5t-83 -283.5zM485 1257l185 340h155l-192 -340h-148z" />
<glyph unicode="&#xea;" horiz-adv-x="1114" d="M100 520v45q0 115 27.5 212t82.5 172t144 117t205 42t204.5 -42t142.5 -117t81 -172t27 -212v-82h-768q5 -184 84.5 -284.5t238.5 -100.5q78 0 139 22.5t97 59t54 79.5t18 89h137v-8q0 -65 -27.5 -128t-80 -116.5t-140 -86t-197.5 -32.5q-96 0 -174.5 27.5t-132.5 76.5 t-91 118t-54 149t-17 172zM227 1257l269 340h127l268 -340h-141l-191 232l-190 -232h-142zM246 602h622q-6 183 -83 284t-228 101q-150 0 -228 -101.5t-83 -283.5z" />
<glyph unicode="&#xeb;" horiz-adv-x="1114" d="M100 520v45q0 115 27.5 212t82.5 172t144 117t205 42t204.5 -42t142.5 -117t81 -172t27 -212v-82h-768q5 -184 84.5 -284.5t238.5 -100.5q78 0 139 22.5t97 59t54 79.5t18 89h137v-8q0 -65 -27.5 -128t-80 -116.5t-140 -86t-197.5 -32.5q-96 0 -174.5 27.5t-132.5 76.5 t-91 118t-54 149t-17 172zM246 602h622q-6 183 -83 284t-228 101q-150 0 -228 -101.5t-83 -283.5zM299 1346v180h178v-180h-178zM641 1346v180h178v-180h-178z" />
<glyph unicode="&#xec;" horiz-adv-x="444" d="M-45 1597h156l184 -340h-148zM150 0v1085h143v-1085h-143z" />
<glyph unicode="&#xed;" horiz-adv-x="444" d="M147 1257l185 340h155l-192 -340h-148zM150 0v1085h143v-1085h-143z" />
<glyph unicode="&#xee;" horiz-adv-x="444" d="M-111 1257l269 340h127l268 -340h-141l-191 232l-190 -232h-142zM150 0v1085h143v-1085h-143z" />
<glyph unicode="&#xef;" horiz-adv-x="444" d="M-39 1346v180h178v-180h-178zM150 0v1085h143v-1085h-143zM303 1346v180h178v-180h-178z" />
<glyph unicode="&#xf0;" horiz-adv-x="1114" d="M100 518v49q0 115 27 212t80 171t139.5 116t198.5 42q163 0 270 -96q-56 156 -149 258q-50 52 -138 114l-350 -202v112l252 146q-140 67 -330 90v131q282 -23 475 -139l240 139v-113l-151 -86q55 -43 114 -106q67 -75 115.5 -176.5t73.5 -210t36 -206.5t11 -196v-49 q0 -115 -27 -211.5t-81 -171t-143.5 -116.5t-205.5 -42t-205.5 42t-143.5 116.5t-81 171t-27 211.5zM246 518q0 -193 77.5 -302.5t233.5 -109.5t233.5 109.5t77.5 302.5v49q0 193 -77.5 302.5t-233.5 109.5t-233.5 -109.5t-77.5 -302.5v-49z" />
<glyph unicode="&#xf1;" horiz-adv-x="1081" d="M123 1085h119l20 -153q116 176 365 176q157 0 243 -95.5t86 -252.5v-760h-143v739q0 120 -62 180t-173 60q-194 0 -299 -168v-811h-144v778zM227 1339q0 105 44.5 158t121.5 53q43 0 87 -17t73.5 -38t64.5 -38t62 -17q74 0 74 88h112q0 -105 -44.5 -158t-121.5 -53 q-54 0 -108 27.5t-99.5 55t-78.5 27.5q-74 0 -74 -88h-113z" />
<glyph unicode="&#xf2;" horiz-adv-x="1114" d="M100 518v49q0 115 27 211.5t81 171t143.5 116.5t205.5 42t205.5 -42t143.5 -116.5t81 -171t27 -211.5v-49q0 -115 -27 -211.5t-81 -171t-143.5 -116.5t-205.5 -42t-205.5 42t-143.5 116.5t-81 171t-27 211.5zM246 518q0 -193 77.5 -302.5t233.5 -109.5t233.5 109.5 t77.5 302.5v49q0 193 -77.5 302.5t-233.5 109.5t-233.5 -109.5t-77.5 -302.5v-49zM291 1597h155l185 -340h-148z" />
<glyph unicode="&#xf3;" horiz-adv-x="1114" d="M100 518v49q0 115 27 211.5t81 171t143.5 116.5t205.5 42t205.5 -42t143.5 -116.5t81 -171t27 -211.5v-49q0 -115 -27 -211.5t-81 -171t-143.5 -116.5t-205.5 -42t-205.5 42t-143.5 116.5t-81 171t-27 211.5zM246 518q0 -193 77.5 -302.5t233.5 -109.5t233.5 109.5 t77.5 302.5v49q0 193 -77.5 302.5t-233.5 109.5t-233.5 -109.5t-77.5 -302.5v-49zM483 1257l185 340h155l-192 -340h-148z" />
<glyph unicode="&#xf4;" horiz-adv-x="1114" d="M100 518v49q0 115 27 211.5t81 171t143.5 116.5t205.5 42t205.5 -42t143.5 -116.5t81 -171t27 -211.5v-49q0 -115 -27 -211.5t-81 -171t-143.5 -116.5t-205.5 -42t-205.5 42t-143.5 116.5t-81 171t-27 211.5zM225 1257l269 340h127l268 -340h-141l-191 232l-190 -232 h-142zM246 518q0 -193 77.5 -302.5t233.5 -109.5t233.5 109.5t77.5 302.5v49q0 193 -77.5 302.5t-233.5 109.5t-233.5 -109.5t-77.5 -302.5v-49z" />
<glyph unicode="&#xf5;" horiz-adv-x="1114" d="M100 518v49q0 115 27 211.5t81 171t143.5 116.5t205.5 42t205.5 -42t143.5 -116.5t81 -171t27 -211.5v-49q0 -115 -27 -211.5t-81 -171t-143.5 -116.5t-205.5 -42t-205.5 42t-143.5 116.5t-81 171t-27 211.5zM238 1339q0 105 44.5 158t120.5 53q43 0 87 -17t73.5 -38 t64.5 -38t62 -17q74 0 74 88h113q0 -105 -44.5 -158t-121.5 -53q-43 0 -87 17t-73.5 38t-64.5 38t-62 17q-74 0 -74 -88h-112zM246 518q0 -193 77.5 -302.5t233.5 -109.5t233.5 109.5t77.5 302.5v49q0 193 -77.5 302.5t-233.5 109.5t-233.5 -109.5t-77.5 -302.5v-49z" />
<glyph unicode="&#xf6;" horiz-adv-x="1114" d="M100 518v49q0 115 27 211.5t81 171t143.5 116.5t205.5 42t205.5 -42t143.5 -116.5t81 -171t27 -211.5v-49q0 -115 -27 -211.5t-81 -171t-143.5 -116.5t-205.5 -42t-205.5 42t-143.5 116.5t-81 171t-27 211.5zM246 518q0 -193 77.5 -302.5t233.5 -109.5t233.5 109.5 t77.5 302.5v49q0 193 -77.5 302.5t-233.5 109.5t-233.5 -109.5t-77.5 -302.5v-49zM297 1346v180h178v-180h-178zM639 1346v180h178v-180h-178z" />
<glyph unicode="&#xf7;" d="M98 731v135h1032v-135h-1032zM524 264v180h181v-180h-181zM524 1153v180h181v-180h-181z" />
<glyph unicode="&#xf8;" horiz-adv-x="1114" d="M100 0l105 139q-105 143 -105 379v49q0 115 27 211.5t81 171t143.5 116.5t205.5 42q175 0 291 -98l57 75h109l-105 -141q105 -140 105 -377v-49q0 -115 -27 -211.5t-81 -171t-143.5 -116.5t-205.5 -42q-176 0 -293 99l-55 -76h-109zM246 518q0 -155 49 -256l471 635 q-76 82 -209 82q-156 0 -233.5 -109.5t-77.5 -302.5v-49zM346 186q80 -80 211 -80q156 0 233.5 109.5t77.5 302.5v49q0 155 -51 254z" />
<glyph unicode="&#xf9;" horiz-adv-x="1081" d="M125 326v759h141v-739q0 -120 62.5 -180t173.5 -60q196 0 301 168v811h143v-778l12 -307h-118l-23 152q-50 -78 -141 -126.5t-221 -48.5q-158 0 -244 96t-86 253zM268 1597h156l184 -340h-147z" />
<glyph unicode="&#xfa;" horiz-adv-x="1081" d="M125 326v759h141v-739q0 -120 62.5 -180t173.5 -60q196 0 301 168v811h143v-778l12 -307h-118l-23 152q-50 -78 -141 -126.5t-221 -48.5q-158 0 -244 96t-86 253zM461 1257l184 340h156l-193 -340h-147z" />
<glyph unicode="&#xfb;" horiz-adv-x="1081" d="M125 326v759h141v-739q0 -120 62.5 -180t173.5 -60q196 0 301 168v811h143v-778l12 -307h-118l-23 152q-50 -78 -141 -126.5t-221 -48.5q-158 0 -244 96t-86 253zM203 1257l268 340h127l268 -340h-141l-190 232l-191 -232h-141z" />
<glyph unicode="&#xfc;" horiz-adv-x="1081" d="M125 326v759h141v-739q0 -120 62.5 -180t173.5 -60q196 0 301 168v811h143v-778l12 -307h-118l-23 152q-50 -78 -141 -126.5t-221 -48.5q-158 0 -244 96t-86 253zM274 1346v180h179v-180h-179zM616 1346v180h179v-180h-179z" />
<glyph unicode="&#xfd;" horiz-adv-x="991" d="M47 1085h154l309 -886l311 886h154l-389 -1044l-154 -451h-166l170 451zM436 1257l185 340h155l-192 -340h-148z" />
<glyph unicode="&#xfe;" horiz-adv-x="1099" d="M133 -410v2048h143v-680q102 150 310 150q108 0 189.5 -41.5t130 -116.5t72 -171t23.5 -212v-49q0 -116 -23.5 -212t-72 -171t-130 -116.5t-189.5 -41.5q-208 0 -310 150v-537h-143zM279 274q100 -168 274 -168q150 0 225.5 109t75.5 303v49q0 194 -75.5 303t-225.5 109 q-174 0 -274 -168v-537z" />
<glyph unicode="&#xff;" horiz-adv-x="991" d="M47 1085h154l309 -886l311 886h154l-389 -1044l-154 -451h-166l170 451zM250 1346v180h178v-180h-178zM592 1346v180h178v-180h-178z" />
<glyph unicode="&#x152;" horiz-adv-x="1925" d="M117 758v82q0 204 41 351t122 235.5t192.5 129.5t260.5 41h1110v-133h-743v-583h641v-131h-641v-617h743v-133h-1110q-149 0 -260.5 41t-192.5 130t-122 236t-41 351zM268 758q0 -169 31 -289.5t93.5 -194t149 -107.5t203.5 -34h207v1331h-207q-117 0 -203.5 -34 t-149 -107t-93.5 -193.5t-31 -289.5v-82z" />
<glyph unicode="&#x153;" horiz-adv-x="1882" d="M100 518v49q0 115 27 211.5t81 171t143.5 116.5t205.5 42q143 0 239 -64.5t146 -177.5q50 113 146 177.5t239 64.5q116 0 205 -42t143 -117t81.5 -172t27.5 -212v-82h-770q5 -184 85 -284.5t240 -100.5q77 0 138 22.5t96.5 59t53.5 79.5t18 89h139v-8q0 -52 -16.5 -102.5 t-52.5 -98t-87.5 -83.5t-126.5 -57.5t-164 -21.5q-283 0 -395 242q-50 -113 -146 -177.5t-239 -64.5q-116 0 -205.5 42t-143.5 116.5t-81 171t-27 211.5zM246 518q0 -193 77.5 -302.5t233.5 -109.5t233.5 109.5t77.5 302.5v49q0 193 -77.5 302.5t-233.5 109.5t-233.5 -109.5 t-77.5 -302.5v-49zM1014 602h622q-6 183 -83 284t-228 101q-150 0 -228 -101.5t-83 -283.5z" />
<glyph unicode="&#x178;" horiz-adv-x="1181" d="M43 1597h160l389 -931l387 931h162l-475 -1114v-483h-148v483zM350 1761v144h162v-144h-162zM672 1761v144h162v-144h-162z" />
<glyph unicode="&#x2c6;" horiz-adv-x="1024" d="M180 1257l269 340h126l269 -340h-142l-190 232l-190 -232h-142z" />
<glyph unicode="&#x2dc;" horiz-adv-x="1024" d="M193 1339q0 105 44.5 158t120.5 53q43 0 87 -17t73.5 -38t64.5 -38t62 -17q74 0 74 88h112q0 -105 -44.5 -158t-120.5 -53q-43 0 -87 17t-73.5 38t-64.5 38t-62 17q-74 0 -74 -88h-112z" />
<glyph unicode="&#x2000;" horiz-adv-x="984" />
<glyph unicode="&#x2001;" horiz-adv-x="1968" />
<glyph unicode="&#x2002;" horiz-adv-x="984" />
<glyph unicode="&#x2003;" horiz-adv-x="1968" />
<glyph unicode="&#x2004;" horiz-adv-x="656" />
<glyph unicode="&#x2005;" horiz-adv-x="492" />
<glyph unicode="&#x2006;" horiz-adv-x="328" />
<glyph unicode="&#x2007;" horiz-adv-x="328" />
<glyph unicode="&#x2008;" horiz-adv-x="246" />
<glyph unicode="&#x2009;" horiz-adv-x="393" />
<glyph unicode="&#x200a;" horiz-adv-x="109" />
<glyph unicode="&#x2010;" horiz-adv-x="673" d="M82 651v131h510v-131h-510z" />
<glyph unicode="&#x2011;" horiz-adv-x="673" d="M82 651v131h510v-131h-510z" />
<glyph unicode="&#x2012;" horiz-adv-x="673" d="M82 651v131h510v-131h-510z" />
<glyph unicode="&#x2013;" horiz-adv-x="1024" d="M82 651v131h860v-131h-860z" />
<glyph unicode="&#x2014;" horiz-adv-x="2048" d="M82 651v131h1884v-131h-1884z" />
<glyph unicode="&#x2018;" horiz-adv-x="442" d="M129 1200v148q0 278 231 278v-86q-67 0 -103 -35.5t-42 -120.5h98v-184h-184z" />
<glyph unicode="&#x2019;" horiz-adv-x="442" d="M82 1171v86q66 0 101.5 36t41.5 120h-96v184h184v-147q0 -279 -231 -279z" />
<glyph unicode="&#x201a;" horiz-adv-x="442" d="M82 -156q66 0 101.5 36t41.5 120h-96v184h184v-147q0 -279 -231 -279v86z" />
<glyph unicode="&#x201c;" horiz-adv-x="741" d="M129 1200v148q0 278 231 278v-86q-67 0 -103 -35.5t-42 -120.5h98v-184h-184zM428 1200v148q0 278 231 278v-86q-67 0 -103 -35.5t-42 -120.5h98v-184h-184z" />
<glyph unicode="&#x201d;" horiz-adv-x="741" d="M82 1171v86q66 0 101.5 36t41.5 120h-96v184h184v-147q0 -279 -231 -279zM381 1171v86q66 0 101.5 36t41.5 120h-96v184h184v-147q0 -279 -231 -279z" />
<glyph unicode="&#x201e;" horiz-adv-x="741" d="M82 -156q66 0 101.5 36t41.5 120h-96v184h184v-147q0 -279 -231 -279v86zM381 -156q66 0 101.5 36t41.5 120h-96v184h184v-147q0 -279 -231 -279v86z" />
<glyph unicode="&#x2022;" horiz-adv-x="813" d="M139 449v536h535v-536h-535z" />
<glyph unicode="&#x2026;" horiz-adv-x="2048" d="M272 0v184h185v-184h-185zM932 0v184h184v-184h-184zM1591 0v184h185v-184h-185z" />
<glyph unicode="&#x202f;" horiz-adv-x="393" />
<glyph unicode="&#x2039;" horiz-adv-x="622" d="M102 633v127l418 313v-143l-305 -234l305 -233v-144z" />
<glyph unicode="&#x203a;" horiz-adv-x="622" d="M102 319v144l306 233l-306 234v143l418 -313v-127z" />
<glyph unicode="&#x205f;" horiz-adv-x="492" />
<glyph unicode="&#x20ac;" d="M70 604v133h147v123h-147v133h151q23 327 143 477t343 150q226 0 326 -133.5t100 -405.5v-57h-134q0 248 -65 355.5t-215 107.5h-14q-294 0 -330 -494h545l-66 -133h-485v-123h469l-66 -133h-397q36 -493 330 -493h14q138 0 209 101.5t71 299.5h134v-20q0 -253 -103 -384 t-323 -131q-223 0 -343 150t-143 477h-151z" />
<glyph unicode="&#x2122;" horiz-adv-x="1071" d="M39 1561v77h373v-77h-144v-476h-86v476h-143zM479 1085v553h129l113 -415l113 415h131v-553h-86v281l4 137l-113 -418h-96l-113 418l4 -137v-281h-86z" />
<glyph unicode="&#x25fc;" horiz-adv-x="1085" d="M0 0v1085h1085v-1085h-1085z" />
<glyph unicode="&#xfb01;" horiz-adv-x="1220" d="M63 956v129h173v252q0 169 85 246.5t232 77.5q91 0 152 -23v-125q-13 6 -49 12.5t-68 6.5q-109 0 -159 -45t-50 -168v-234h305v-129h-305v-956h-143v956h-173zM907 1341v185h185v-185h-185zM928 0v1085h143v-1085h-143z" />
<glyph unicode="&#xfb02;" horiz-adv-x="1220" d="M63 956v129h173v252q0 169 85 246.5t232 77.5q91 0 152 -23v-125q-13 6 -49 12.5t-68 6.5q-109 0 -159 -45t-50 -168v-234h305v-129h-305v-956h-143v956h-173zM928 0v1638h143v-1638h-143z" />
</font>
</defs>
</svg>
